<?xml version="1.0" standalone="no"?><!DOCTYPE svg PUBLIC "-//W3C//DTD SVG 1.1//EN" "http://www.w3.org/Graphics/SVG/1.1/DTD/svg11.dtd"><svg class="icon" style="width: 5em; height: 5em;vertical-align: middle;fill: currentColor;overflow: hidden;" viewBox="0 0 1024 1024" version="1.1" xmlns="http://www.w3.org/2000/svg"><path d="M656.87552 636.06784l145.48992 145.94048a400.5888 400.5888 0 0 0 103.75168-260.99712l-203.20256 0.98304a190.99648 190.99648 0 0 1-46.03904 114.0736z" fill="#64B064" /><path d="M702.75072 497.82784l203.20256-0.98304c-7.65952-209.18272-174.08-377.15968-380.80512-384l0.98304 207.74912c94.53568 5.57056 170.27072 81.75616 176.61952 177.23392z" fill="#2184B2" /><path d="M326.94272 510.85312c0-100.88448 77.37344-183.41888 175.3088-190.09536l-0.98304-207.95392c-212.70528 5.85728-383.3856 182.19008-383.3856 399.07328a400.42496 400.42496 0 0 0 109.52704 276.02944l147.08736-150.44608a191.20128 191.20128 0 0 1-47.55456-126.60736z" fill="#43A3D4" /><path d="M515.11296 701.44a185.87648 185.87648 0 0 1-123.61728-46.98112l-147.08736 150.44608a390.3488 390.3488 0 0 0 541.24544-5.61152l-145.53088-146.0224a186.24512 186.24512 0 0 1-125.00992 48.16896z" fill="#346BAA" /></svg>